<svg xmlns="http://www.w3.org/2000/svg" xmlns:xlink="http://www.w3.org/1999/xlink" width="1024" zoomAndPan="magnify" viewBox="0 0 768 767.999994" height="1024" preserveAspectRatio="xMidYMid meet" version="1.2"><defs/><g id="b07fe43f6b"><g style="fill:#eb7a02;fill-opacity:1;"><g transform="translate(520.399244, 661.828047)"><path style="stroke:none" d="M -62.40625 -297.203125 L -22.671875 -238.90625 L 71.34375 -302.96875 L 108.28125 -248.75 L 14.265625 -184.6875 L 57.359375 -121.46875 L 163.703125 -193.921875 L 202.03125 -137.65625 L 25.46875 -17.34375 L -170.953125 -305.59375 L 5.609375 -425.90625 L 43.9375 -369.65625 Z M -62.40625 -297.203125 "/></g></g><g style="fill:#f0ba7a;fill-opacity:1;"><g transform="translate(19.334268, 634.325404)"><path style="stroke:none" d="M 350.15625 -258.84375 C 379.394531 -252.613281 402.878906 -238.113281 420.609375 -215.34375 C 438.347656 -192.570312 447.21875 -166.566406 447.21875 -137.328125 C 447.21875 -95.148438 432.476562 -61.71875 403 -37.03125 C 373.519531 -12.34375 332.414062 0 279.6875 0 L 44.578125 0 L 44.578125 -504.734375 L 271.78125 -504.734375 C 323.070312 -504.734375 363.21875 -492.988281 392.21875 -469.5 C 421.21875 -446.019531 435.71875 -414.144531 435.71875 -373.875 C 435.71875 -344.15625 427.925781 -319.46875 412.34375 -299.8125 C 396.769531 -280.164062 376.039062 -266.507812 350.15625 -258.84375 Z M 167.53125 -300.546875 L 248.0625 -300.546875 C 268.1875 -300.546875 283.640625 -304.976562 294.421875 -313.84375 C 305.210938 -322.707031 310.609375 -335.769531 310.609375 -353.03125 C 310.609375 -370.28125 305.210938 -383.457031 294.421875 -392.5625 C 283.640625 -401.675781 268.1875 -406.234375 248.0625 -406.234375 L 167.53125 -406.234375 Z M 258.125 -99.21875 C 278.726562 -99.21875 294.660156 -103.890625 305.921875 -113.234375 C 317.191406 -122.585938 322.828125 -136.128906 322.828125 -153.859375 C 322.828125 -171.597656 316.953125 -185.5 305.203125 -195.5625 C 293.460938 -205.632812 277.289062 -210.671875 256.6875 -210.671875 L 167.53125 -210.671875 L 167.53125 -99.21875 Z M 258.125 -99.21875 "/></g></g></g></svg>